<svg xmlns="http://www.w3.org/2000/svg" viewBox="0 0 512 512">
  <defs>
    <linearGradient id="bg" x1="0%" y1="0%" x2="100%" y2="100%">
      <stop offset="0%" style="stop-color:#34d399"/>
      <stop offset="100%" style="stop-color:#10b981"/>
    </linearGradient>
  </defs>
  <rect width="512" height="512" rx="108" fill="url(#bg)"/>
  <g transform="translate(256, 240)">
    <rect x="-60" y="-10" width="120" height="90" rx="8" fill="white" opacity="0.95"/>
    <polygon points="-80,0 0,-65 80,0" fill="white" opacity="0.95"/>
    <rect x="-15" y="30" width="30" height="50" rx="4" fill="#10b981"/>
    <rect x="-50" y="15" width="25" height="25" rx="4" fill="#ecfdf5"/>
    <rect x="25" y="15" width="25" height="25" rx="4" fill="#ecfdf5"/>
    <rect x="30" y="-55" width="18" height="30" rx="3" fill="white" opacity="0.9"/>
  </g>
  <g transform="translate(256, 155) scale(0.7)">
    <path d="M0,30 C0,30 -70,-30 -70,-60 C-70,-95 -30,-95 0,-60 C30,-95 70,-95 70,-60 C70,-30 0,30 0,30Z" fill="white"/>
  </g>
  <g opacity="0.4">
    <circle cx="120" cy="400" r="8" fill="white"/>
    <circle cx="400" cy="130" r="6" fill="white"/>
    <circle cx="380" cy="380" r="10" fill="white"/>
    <circle cx="140" cy="150" r="5" fill="white"/>
  </g>
</svg>
